Motion_pl14
version=1
nRows=15
nColumns=43
inDegrees=yes
endheader
time	pelvis_tilt	pelvis_list	pelvis_rotation	pelvis_tx	pelvis_ty	pelvis_tz	hip_flexion_r	hip_adduction_r	hip_rotation_r	knee_angle_r	ankle_angle_r	subtalar_angle_r	mtp_angle_r	hip_flexion_l	hip_adduction_l	hip_rotation_l	knee_angle_l	ankle_angle_l	subtalar_angle_l	mtp_angle_l	lumbar_extension	lumbar_bending	lumbar_rotation	neck_flexion	neck_lateral_bending	neck_rotation	arm_flex_r	arm_add_r	arm_rot_r	elbow_flex_r	pro_sup_r	wrist_flex_r	wrist_dev_r	hand_finger_flex_r	arm_flex_l	arm_add_l	arm_rot_l	elbow_flex_l	pro_sup_l	wrist_flex_l	wrist_dev_l	hand_finger_flex_l
      2.27000000	      2.50054172	     11.61108279	     87.49510681	     -0.01790705	      0.94178962	      0.31000986	     -3.81842620	     -0.20295847	     -2.21298203	    -30.96387111	     18.26733104	      9.16815514	     25.40884967	     -8.58435078	     -4.95161289	    -13.55247230	    -26.16496181	     16.64061702	      8.14527013	     27.85324182	     -5.14595949	      3.26853062	      5.51492749	    -13.08661894	     -0.05971117	    -16.41308760	    104.60970306	    -28.99511574	     39.21761153	     79.45044448	    109.42260280	     11.38681261	     13.21807284	     -0.78905656	    108.80768728	    -38.28531451	     40.33810499	     87.61752284	    109.93594993	     -6.35970299	      9.03012785	     29.14394984
      2.27250000	      2.44307089	     11.73802649	     87.48907050	     -0.01794242	      0.94213034	      0.31014156	     -3.93305657	     -0.27395190	     -2.23113443	    -30.98242064	     18.11502334	      9.12468742	     25.43405223	     -8.79932320	     -4.86286892	    -13.57954983	    -25.98673230	     16.45732873	      8.10916803	     27.69082716	     -5.22938223	      3.21051283	      5.43886125	    -13.46485242	     -0.17281319	    -16.67669370	    103.47976323	    -28.97335371	     38.58421109	     80.09039580	    109.57557117	     11.46746177	     13.41443670	     -0.83481728	    107.42254505	    -38.26383094	     39.22486444	     88.33104226	    110.31490824	     -6.09897351	      9.26230006	     29.05340909
      2.27500000	      2.42272523	     11.74076496	     87.47387269	     -0.01804011	      0.94220642	      0.31011379	     -4.00517778	     -0.29592071	     -2.17219579	    -30.82086066	     18.06897116	      9.12095273	     25.45107661	     -8.92236463	     -4.79298394	    -13.54674388	    -25.74676918	     16.49204626	      8.08426979	     27.62131759	     -5.23090626	      3.18848165	      5.34882029	    -13.37148708	     -0.18045032	    -16.86700351	    102.63536578	    -29.14620925	     38.37106822	     80.80554708	    109.56980720	     11.51852561	     13.36270557	     -0.83074817	    106.50833173	    -38.53858151	     38.81823416	     89.12906029	    110.44993034	     -5.93514227	      9.23854082	     29.02974987
      2.27750000	      2.38768232	     11.80568958	     87.46964895	     -0.01810158	      0.94243873	      0.31014367	     -4.10963846	     -0.33841727	     -2.16950836	    -30.72871079	     17.96205769	      9.09526191	     25.46399370	     -9.08955136	     -4.72272465	    -13.54702107	    -25.54325540	     16.42590031	      8.08210232	     27.53735904	     -5.27361828	      3.15023724	      5.24287257	    -13.50587665	     -0.24057081	    -17.09209290	    101.58058246	    -29.18658017	     37.89275842	     81.49310363	    109.59918816	     11.49881646	     13.42180953	     -0.84403745	    105.30665853	    -38.68659913	     38.05259248	     89.91248260	    110.60288439	     -5.80690655	      9.28769909	     28.96074833
      2.28000000	      2.36583345	     11.85855497	     87.47060810	     -0.01818996	      0.94267835	      0.31016792	     -4.20946785	     -0.36722681	     -2.17275645	    -30.62396309	     17.87014601	      9.08207747	     25.47470008	     -9.24260235	     -4.67096255	    -13.56254765	    -25.34700731	     16.34404120	      8.08797931	     27.45107578	     -5.29238217	      3.13649239	      5.14518669	    -13.69288956	     -0.31381255	    -17.31057372	    100.53292621	    -29.23122142	     37.46285387	     82.15335407	    109.68565193	     11.53393988	     13.51988184	     -0.83084015	    104.05905814	    -38.81495784	     37.25659494	     90.66741316	    110.78643100	     -5.62592548	      9.31758572	     28.87649167
      2.28250000	      2.35264265	     11.91120687	     87.46980232	     -0.01828475	      0.94290058	      0.31021637	     -4.29561856	     -0.38998949	     -2.17882459	    -30.54083021	     17.78476799	      9.08205832	     25.47401152	     -9.37511866	     -4.63489375	    -13.59039711	    -25.19032197	     16.26976702	      8.10617407	     27.36501882	     -5.31659367	      3.13210547	      5.04706615	    -13.87915755	     -0.39690906	    -17.52964276	     99.48963275	    -29.26902878	     37.04269937	     82.81284247	    109.80799812	     11.58581589	     13.61385748	     -0.80776819	    102.78605220	    -38.92337460	     36.44576977	     91.40991814	    110.96766614	     -5.42428430	      9.29225913	     28.76557652
      2.28500000	      2.34251268	     11.95548053	     87.47217647	     -0.01840034	      0.94313112	      0.31026316	     -4.37816634	     -0.41133637	     -2.19060998	    -30.45087192	     17.70993084	      9.08930990	     25.45457502	     -9.49065201	     -4.60660867	    -13.62707555	    -25.04989595	     16.19890398	      8.13995378	     27.27951674	     -5.32972139	      3.13497167	      4.94893854	    -14.06644205	     -0.48646434	    -17.74646963	     98.42932701	    -29.30454984	     36.62999062	     83.46711012	    109.96422461	     11.64713584	     13.70246501	     -0.78152362	    101.47909411	    -39.01610728	     35.62074716	     92.13785939	    111.12809351	     -5.22308014	      9.21560631	     28.62244174
      2.28750000	      2.33296651	     11.99653419	     87.47523127	     -0.01853818	      0.94336198	      0.31030663	     -4.45747439	     -0.43591133	     -2.20992546	    -30.36250532	     17.64552214	      9.10341628	     25.41113117	     -9.58636962	     -4.58276567	    -13.66907144	    -24.93909337	     16.12929156	      8.18969985	     27.19504103	     -5.33981080	      3.14036979	      4.85025651	    -14.25090028	     -0.58174957	    -17.96118000	     97.35581393	    -29.33926647	     36.22192937	     84.12276250	    110.14964137	     11.71382917	     13.78262487	     -0.75741290	    100.14186328	    -39.09071805	     34.78654903	     92.85659511	    111.26130920	     -5.03519544	      9.10376332	     28.44793845
      2.29000000	      2.31799984	     12.03637870	     87.48496865	     -0.01867700	      0.94360312	      0.31036311	     -4.53281160	     -0.46649298	     -2.23803177	    -30.27699006	     17.59429362	      9.12249380	     25.34193955	     -9.66319131	     -4.56367753	    -13.71291416	    -24.86234864	     16.06161911	      8.25354417	     27.11223069	     -5.35063512	      3.14338349	      4.75651258	    -14.42774956	     -0.67961421	    -18.17194155	     96.27314660	    -29.38000583	     35.81906513	     84.77962640	    110.35584380	     11.78475685	     13.85279716	     -0.73913589	     98.77966714	    -39.15437512	     33.95137979	     93.56513460	    111.37229707	     -4.86591423	      8.98242510	     28.24891375
      2.29250000	      2.29768890	     12.07628888	     87.49804687	     -0.01883868	      0.94384229	      0.31043421	     -4.60701723	     -0.50577488	     -2.27613917	    -30.19634588	     17.55562260	      9.14322241	     25.24883565	     -9.71962757	     -4.54444135	    -13.75553742	    -24.82158671	     15.99637440	      8.33084841	     27.03210040	     -5.36648512	      3.14195716	      4.66404703	    -14.58743644	     -0.77653572	    -18.37678525	     95.18076066	    -29.42947001	     35.42381207	     85.43593975	    110.57052528	     11.85703206	     13.91233063	     -0.73006111	     97.40681762	    -39.20321120	     33.12334681	     94.26827794	    111.47167652	     -4.71930231	      8.87604319	     28.03630975
      2.29500000	      2.34125729	     11.93707446	     87.46932119	     -0.01907337	      0.94383271	      0.31060278	     -4.39354277	     -0.49149054	     -2.31989863	    -30.29482887	     17.57388620	      9.29804018	     24.73000399	     -9.54814164	     -4.59745487	    -13.83683221	    -24.85984465	     15.94224742	      8.39755036	     26.61835773	     -5.16493485	      3.27442348	      4.63905639	    -15.02315571	     -1.10808172	    -18.72790911	     94.06037646	    -29.39316440	     34.93068579	     86.06206152	    111.66980472	     12.69445254	     13.89710867	     -0.67799205	     95.54933675	    -38.96172155	     31.47195371	     95.00846282	    112.63718286	     -3.07162470	      8.60961679	     27.01042304
      2.29750000	      2.26627211	     12.04681932	     87.50082125	     -0.01928898	      0.94409255	      0.31074067	     -4.56458411	     -0.58749536	     -2.31920831	    -30.15720041	     17.57150607	      9.23667562	     24.64769342	     -9.61445132	     -4.52498330	    -13.82734352	    -24.93373515	     15.92726298	      8.47878096	     26.56264181	     -5.30060560	      3.18255951	      4.51863369	    -14.92963392	     -1.03900048	    -18.80380647	     92.97645438	    -29.49135180	     34.56268644	     86.71263851	    111.56909920	     12.51239724	     13.79421612	     -0.77366641	     94.44046471	    -39.10382483	     31.02145845	     95.69365941	    112.49823010	     -3.23212212	      8.53453623	     26.80724301
      2.30000000	      2.22306270	     12.13229014	     87.54334167	     -0.01953129	      0.94438171	      0.31078662	     -4.70264863	     -0.66110658	     -2.41222642	    -30.06770324	     17.54925972	      9.20456155	     24.54365736	     -9.69417194	     -4.49118643	    -13.85034654	    -24.92755859	     15.85562467	      8.59326432	     26.50133929	     -5.38036774	      3.14128226	      4.40393288	    -15.00220038	     -1.05790636	    -18.94853610	     91.83624015	    -29.57770816	     34.17958044	     87.37659238	    111.58024365	     12.42138306	     13.84108971	     -0.84958295	     93.14037126	    -39.14553482	     30.39288060	     96.38726207	    112.43913723	     -3.38258406	      8.57999544	     26.61392343
      2.30250000	      2.19488548	     12.20043232	     87.57796152	     -0.01979689	      0.94463395	      0.31084571	     -4.81273289	     -0.72255002	     -2.50164189	    -29.98755722	     17.52830315	      9.20194498	     24.42842481	     -9.75061089	     -4.47059282	    -13.87416409	    -24.93969163	     15.79437145	      8.71013486	     26.43802439	     -5.44486393	      3.12638309	      4.30194482	    -15.09127875	     -1.11120761	    -19.12199847	     90.69945548	    -29.65339610	     33.80428129	     88.03633242	    111.65485802	     12.40499001	     13.94235812	     -0.91236365	     91.79001881	    -39.14825979	     29.70419901	     97.08755090	    112.49734041	     -3.47020532	      8.69721790	     26.45400143
      2.30500000	      2.19996377	     12.26492657	     87.59948853	     -0.02003324	      0.94488009	      0.31099637	     -4.85564216	     -0.76100202	     -2.64572864	    -30.03272937	     17.46202313	      9.23245913	     24.22980751	     -9.78579564	     -4.48949969	    -13.88251593	    -24.98372387	     15.68523095	      8.85810072	     26.33060344	     -5.48845825	      3.16096330	      4.22225334	    -15.41772304	     -1.23658849	    -19.31427422	     89.51804688	    -29.65487781	     33.37084921	     88.63977773	    111.89720459	     12.54493303	     14.16461134	     -0.99233812	     90.26090094	    -38.99874017	     28.77326145	     97.75473817	    112.84530910	     -3.37236126	      8.95329898	     26.26729114
